# xmcd
#
# Track frame offsets:
#	150
#	21015
#	40311
#	61095
#	83881
#	100643
#	118691
#	135320
#	156427
#	172192
#	195844
#	213628
#
# Disc length: 3166 seconds
#
# Revision: 1
# Processed by: cddbd v1.5.2PL0 Copyright (c) Steve Scherf et al.
# Submitted via: audiograbber 1.83.01
#
DISCID=9a0c5c0c
DTITLE=Claudia Koreck - Barfuass Um die Welt
DYEAR=2009
DGENRE=Vocal
TTITLE0=Strandlied
TTITLE1=I wui, dass du woaﬂt
TTITLE2=Nur wegen dir
TTITLE3=Hea nu ned auf
TTITLE4=Lisa
TTITLE5=Barfuaﬂ um die Welt
TTITLE6=Jaga
TTITLE7=Dahoam
TTITLE8=Scheen Aung
TTITLE9=Melodie in meim Kopf
TTITLE10='s ewige Lern
TTITLE11=Verloren
EXTD=
EXTT0=
EXTT1=
EXTT2=
EXTT3=
EXTT4=
EXTT5=
EXTT6=
EXTT7=
EXTT8=
EXTT9=
EXTT10=
EXTT11=
PLAYORDER=
